<svg width="147" height="158" viewBox="0 0 147 158" fill="none" xmlns="http://www.w3.org/2000/svg">
<path fill-rule="evenodd" clip-rule="evenodd" d="M12.6366 22.58C8.56197 21.9705 4.53543 21.3682 2.29355 25C2.20931 25.1365 2.12466 25.2718 2.04064 25.4061L2.04043 25.4065C1.15402 26.8236 0.336885 28.13 0.793548 29.5C0.9634 30.0096 0.680898 30.8653 0.407054 31.6949C-0.125207 33.3073 -0.624761 34.8206 2.29355 33.5C6.7133 31.5 14.7935 33.5 14.7935 33.5H26.2936H43.2935L55.2935 35.5L63.2935 38L68.7936 40.5C68.7936 40.5 73.0601 45.6479 74.7936 49.5C78.5306 57.8045 67.2347 60.3424 64.085 60.8801L63.2935 61C63.2935 61 63.5878 60.965 64.085 60.8801L79.7936 58.5L83.7936 53.5C83.7936 53.5 83.067 51.7205 85.7133 49.5C89.2435 46.5378 107.206 41.5 98 47.5C88.7936 53.5 99.9985 58.2907 104.294 58.5C106.345 58.6 107.514 59.4152 109.07 60.4997L109.07 60.4998C109.301 60.6611 109.541 60.8283 109.794 61C114.228 64.0146 117.294 72.5 117.294 72.5C117.294 72.5 122.149 77.4338 123.294 81.5C123.408 81.9053 123.526 82.3035 123.641 82.6952L123.642 82.6955C124.547 85.7557 125.337 88.423 123.294 91C119.662 95.5801 113.713 79.5 113.713 79.5L107.294 72.5V78.5C107.294 78.5 109.155 93.615 107.294 103C106.092 109.057 105.368 112.645 102.294 118C99.0257 123.693 95.6977 126.391 91.0737 130.14C90.3472 130.729 89.5888 131.343 88.7936 132C85.4502 134.76 79.7936 138.5 79.7936 138.5C79.7936 138.5 72.8174 140.004 68.7936 138.5C66.4088 137.609 63.2935 135 63.2935 135V65.5L61.2935 61C60.4602 58.5 55.2935 53.5 55.2935 53.5C55.2935 53.5 49.1269 50.8333 47.7935 49.5L40.2935 47.5H33.2935V79.8625L47.9741 65.1819C49.7315 63.4246 52.6416 63.361 54.474 65.04C56.3064 66.7189 56.3673 69.5046 54.6099 71.2619L33.4573 92.4145L33.2935 92.2644V101.563L48.6744 86.182C50.4317 84.4246 53.3418 84.361 55.1742 86.04C57.0067 87.7189 57.0675 90.5046 55.3102 92.2619L33.2935 114.279V125.563L51.6744 107.182C53.4317 105.425 56.3418 105.361 58.1742 107.04C60.0067 108.719 60.0675 111.505 58.3102 113.262L33.2935 138.279V138.5C33.2935 138.5 31.9235 140.476 30.7936 141.5C30.1939 142.044 29.4243 142.534 28.6075 142.965L26.6358 144.936L25.8182 144.187C24.3968 144.713 23.2936 145 23.2936 145L18.2936 148.5V154.5C18.2936 154.5 58.9615 160.638 83.7936 154.5C91.1668 152.678 102.294 148.5 102.294 148.5L117.294 138.5L127.794 127.5C127.794 127.5 131.345 121.934 132.794 118C134.579 113.148 135.294 105 135.294 105C135.294 105 143.936 76.5 135.294 65.5C129.763 58.4615 131.607 57.4129 133.462 56.3575C134.506 55.7636 135.554 55.1674 135.294 53.5C134.463 48.1922 130.794 40.5 130.794 40.5C130.794 40.5 129.903 37.2375 130.794 35.5C132.263 32.6345 138.794 33.5 138.794 33.5L145.794 29.5C145.794 29.5 144.713 29.5 145.794 27.25C146.874 25 145.794 25 145.794 25C144.722 23.1904 140.794 23 140.794 23L132.794 21L123.294 19C123.294 19 118.073 17.602 114.794 16.5C109.633 14.7662 106.373 13.2478 102.182 11.2954L102.181 11.2952C100.983 10.7373 99.7096 10.1439 98.2936 9.5C96.0573 8.48306 94.2711 7.47897 92.5667 6.5209L92.5666 6.52086L92.5666 6.5208C89.9086 5.02669 87.4498 3.64449 83.7936 2.5C78.1261 0.725943 68.7936 0 68.7936 0H55.2935C55.2935 0 47.7029 0.636706 43.2935 2.5C37.6458 4.88662 30.7936 12 30.7936 12C30.7936 12 23.7936 22.5 18.2936 23C16.5214 23.1611 14.5736 22.8697 12.6366 22.58Z" fill="#004D69"/>
</svg>
