<?xml version="1.0" standalone="no"?>
<!DOCTYPE svg PUBLIC "-//W3C//DTD SVG 20010904//EN"
 "http://www.w3.org/TR/2001/REC-SVG-20010904/DTD/svg10.dtd">
<svg version="1.0" xmlns="http://www.w3.org/2000/svg"
 width="158.000000pt" height="158.000000pt" viewBox="0 0 158.000000 158.000000"
 preserveAspectRatio="xMidYMid meet">
<metadata>
Created by potrace 1.14, written by Peter Selinger 2001-2017
</metadata>
<g transform="translate(0.000000,158.000000) scale(0.100000,-0.100000)"
fill="#000000" stroke="none">
<path d="M528 1566 c-63 -17 -132 -70 -193 -146 -11 -14 -33 -36 -50 -48 -27
-21 -37 -23 -100 -17 -65 6 -72 4 -92 -17 -11 -13 -24 -40 -27 -61 -7 -37 -7
-38 21 -31 15 4 39 7 53 6 14 -1 106 -4 205 -6 188 -4 245 -12 339 -45 65 -23
77 -33 110 -95 29 -55 25 -81 -18 -107 l-31 -20 55 7 c56 6 77 22 105 79 12
23 73 54 122 62 39 7 44 -8 9 -27 -32 -17 -38 -44 -15 -69 17 -18 75 -41 105
-41 18 0 71 -59 93 -103 12 -23 30 -54 42 -68 32 -40 48 -98 37 -131 -6 -15
-14 -28 -18 -28 -16 0 -43 35 -66 85 -12 27 -35 63 -51 78 l-30 28 3 -138 c6
-235 -28 -322 -171 -439 -107 -88 -174 -106 -241 -65 l-32 19 0 356 c0 343 -1
357 -21 389 -34 52 -54 71 -101 94 -61 29 -98 39 -140 39 l-35 -1 -2 -157 c-1
-87 0 -158 4 -158 3 0 39 34 80 75 42 41 82 75 90 75 25 0 53 -20 53 -39 0
-10 -51 -70 -114 -133 -110 -110 -115 -117 -114 -157 0 -22 1 -41 2 -41 2 0
39 36 84 80 45 44 90 80 101 80 27 0 51 -27 44 -48 -3 -9 -56 -69 -118 -132
l-112 -115 -1 -53 c-1 -62 -9 -66 112 54 50 50 93 84 104 84 25 0 51 -24 48
-45 -3 -19 -325 -346 -336 -340 -14 9 -75 -40 -78 -64 -5 -33 4 -38 88 -46 41
-4 89 -9 105 -11 42 -5 316 -5 340 0 11 2 40 7 66 10 158 21 333 111 446 229
79 82 105 134 119 232 3 22 12 65 20 95 8 30 17 98 21 151 6 105 -4 153 -43
206 -27 36 -31 71 -9 79 21 8 19 44 -6 106 -39 98 -34 114 35 123 67 9 116 61
85 90 -8 6 -61 22 -119 35 -160 35 -224 57 -365 126 -71 34 -154 67 -183 72
-80 14 -260 13 -314 -2z"/>
</g>
</svg>
